# xmcd
#
# Track frame offsets:
#   150
#   15389
#   29816
#   43714
#   57312
#   70922
#   86384
#   101137
#   113650
#   127664
#   141637
#   153929
#   164589
#   176200
#   186997
#   198675
#   211365
#   223659
#   237155
#   250598
#   264981
#   272211
#   284773
#   298532
#   309630
#
# Disc length: 4216 seconds
#
# Revision: 2
# Processed by: cddbd v1.5.1PL0 Copyright (c) Steve Scherf et al.
# Submitted via: Media_Universe 3.0
#
DISCID=85107619
DTITLE=Various Artist - Hobo, Train and Cowboy Songs 1927-1951 - Les Triomphes De La Country Music Vol.19
DYEAR=2002
DGENRE=Country
TTITLE0=Burnett and Rutherford - Ramblin' Reckless Hobo
TTITLE1=Grayson and Whitter - The Red And Green Signal Lights
TTITLE2=Carolina Tar Heels - The Trains Done Left Me
TTITLE3=Gene Autry - A Yodelin' Hobo
TTITLE4=Jimmie Davis - The Davis Limited
TTITLE5=Goebel Reeves and The Texas Drifter's - Warning
TTITLE6=Goebel Reeves and The Texas Drifter's - Cowboy's Lullaby
TTITLE7=Delmore Brothers - Blow Your Whistle Freight Train
TTITLE8=J.E.Mainer's Mountaineers - The Longest Train
TTITLE9=Patsy Montana - I Want To Be A Cowboy's Sweetheart
TTITLE10=Crowder Bros - Depot Blues
TTITLE11=Wade Mainer - Train Carry My Girl Back Home
TTITLE12=Ledford, Mainer and Morris - Riding On That Train
TTITLE13=Roy Hall - Wabash Cannonnball
TTITLE14=Gene Autry - Back In The Saddle Again
TTITLE15=Rouse Bros - Orange Blossom Special
TTITLE16=Sons Of The Pioneers - Cool Water
TTITLE17=Tex Ritter - There's A New Moon Over My Shoulder
TTITLE18=Woodie Guthrie and Cisco Houston - Whoopie-Ti-Yi-Yo, Get Along Little Dogies
TTITLE19=Woody Guthrie - Buffalo Skinners
TTITLE20=Jack Guthrie - Freight Train Blues
TTITLE21=Curley Fox - Wreck Of The 1256
TTITLE22=Leadbelly - When It's Springtime In The Rockies
TTITLE23=Lew Childre - Riding In The Elevated Train
TTITLE24=Haywire Mac McClintock - Utah Carl
EXTD=YEAR: 2002
EXTT0=
EXTT1=
EXTT2=
EXTT3=
EXTT4=
EXTT5=
EXTT6=
EXTT7=
EXTT8=
EXTT9=
EXTT10=
EXTT11=
EXTT12=
EXTT13=
EXTT14=
EXTT15=
EXTT16=
EXTT17=
EXTT18=
EXTT19=
EXTT20=
EXTT21=
EXTT22=
EXTT23=
EXTT24=
PLAYORDER=
